<?xml version="1.0" encoding="UTF-8"?>
<!DOCTYPE svg PUBLIC "-//W3C//DTD SVG 1.1//EN" "http://www.w3.org/Graphics/SVG/1.1/DTD/svg11.dtd">
<!-- Creator: CorelDRAW 2020 (64-Bit) -->
<svg xmlns="http://www.w3.org/2000/svg" xml:space="preserve" width="209.153mm" height="207.888mm" version="1.1" style="shape-rendering:geometricPrecision; text-rendering:geometricPrecision; image-rendering:optimizeQuality; fill-rule:evenodd; clip-rule:evenodd"
viewBox="0 0 3221.12 3201.63"
 xmlns:xlink="http://www.w3.org/1999/xlink"
 xmlns:xodm="http://www.corel.com/coreldraw/odm/2003">
 <defs>
  <style type="text/css">
   <![CDATA[
    .fil0 {fill:#FEFEFE;fill-rule:nonzero}
   ]]>
  </style>
 </defs>
 <g id="Capa_x0020_1">
  <metadata id="CorelCorpID_0Corel-Layer"/>
  <path class="fil0" d="M3221.12 1610.56c0,-889.7 -720.86,-1610.56 -1610.56,-1610.56 -889.7,0 -1610.56,720.86 -1610.56,1610.56 0,803.85 588.96,1470.15 1358.91,1591.07l0 -1125.51 -409.13 0 0 -465.57 409.13 0 0 -354.84c0,-403.61 240.28,-626.56 608.31,-626.56 176.25,0 360.56,31.43 360.56,31.43l0 396.15 -203.14 0c-200.02,0 -262.43,124.17 -262.43,251.52l0 302.3 446.67 0 -71.44 465.57 -375.23 0 0 1125.51c769.95,-120.92 1358.91,-787.22 1358.91,-1591.07z"/>
 </g>
</svg>
