<?xml version="1.0" encoding="UTF-8"?>
<!DOCTYPE svg PUBLIC "-//W3C//DTD SVG 1.1//EN" "http://www.w3.org/Graphics/SVG/1.1/DTD/svg11.dtd">
<!-- Creator: CorelDRAW 2020 (64-Bit) -->
<svg xmlns="http://www.w3.org/2000/svg" xml:space="preserve" width="216.02mm" height="215.972mm" version="1.1" style="shape-rendering:geometricPrecision; text-rendering:geometricPrecision; image-rendering:optimizeQuality; fill-rule:evenodd; clip-rule:evenodd"
viewBox="0 0 3628.05 3627.24"
 xmlns:xlink="http://www.w3.org/1999/xlink"
 xmlns:xodm="http://www.corel.com/coreldraw/odm/2003">
 <defs>
  <style type="text/css">
   <![CDATA[
    .fil0 {fill:#FEFEFE;fill-rule:nonzero}
   ]]>
  </style>
 </defs>
 <g id="Capa_x0020_1">
  <metadata id="CorelCorpID_0Corel-Layer"/>
  <path class="fil0" d="M1814.43 883.64c-514.77,0 -929.98,415.21 -929.98,929.98 0,514.77 415.21,929.98 929.98,929.98 514.77,0 929.98,-415.21 929.98,-929.98 0,-514.77 -415.21,-929.98 -929.98,-929.98zm0 1534.59c-332.65,0 -604.61,-271.14 -604.61,-604.61 0,-333.46 271.14,-604.61 604.61,-604.61 333.47,0 604.61,271.14 604.61,604.61 0,333.47 -271.95,604.61 -604.61,604.61zm1184.93 -1572.63c0,120.6 -97.13,216.91 -216.91,216.91 -120.6,0 -216.91,-97.13 -216.91,-216.91 0,-119.79 97.13,-216.91 216.91,-216.91 119.79,0 216.91,97.13 216.91,216.91zm615.94 220.15c-13.76,-290.57 -80.13,-547.95 -293,-760.01 -212.06,-212.06 -469.44,-278.43 -760.01,-293 -299.47,-17 -1197.07,-17 -1496.54,0 -289.76,13.76 -547.14,80.13 -760.01,292.19 -212.87,212.06 -278.43,469.44 -293,760.01 -17,299.47 -17,1197.07 0,1496.54 13.76,290.57 80.13,547.95 293,760.01 212.87,212.06 469.44,278.43 760.01,293 299.47,17 1197.07,17 1496.54,0 290.57,-13.76 547.95,-80.13 760.01,-293 212.06,-212.06 278.43,-469.44 293,-760.01 17,-299.47 17,-1196.26 0,-1495.74zm-386.88 1817.06c-63.13,158.64 -185.35,280.86 -344.8,344.8 -238.77,94.7 -805.33,72.84 -1069.19,72.84 -263.86,0 -831.23,21.04 -1069.19,-72.84 -158.64,-63.13 -280.86,-185.35 -344.8,-344.8 -94.7,-238.77 -72.84,-805.33 -72.84,-1069.19 0,-263.86 -21.04,-831.23 72.84,-1069.19 63.13,-158.64 185.35,-280.86 344.8,-344.8 238.77,-94.7 805.33,-72.84 1069.19,-72.84 263.86,0 831.23,-21.04 1069.19,72.84 158.64,63.13 280.86,185.35 344.8,344.8 94.7,238.77 72.84,805.33 72.84,1069.19 0,263.86 21.85,831.23 -72.84,1069.19z"/>
 </g>
</svg>
