<?xml version="1.0" encoding="UTF-8"?>
<!DOCTYPE svg PUBLIC "-//W3C//DTD SVG 1.1//EN" "http://www.w3.org/Graphics/SVG/1.1/DTD/svg11.dtd">
<!-- Creator: CorelDRAW 2020 (64-Bit) -->
<svg xmlns="http://www.w3.org/2000/svg" xml:space="preserve" width="215.9mm" height="215.9mm" version="1.1" style="shape-rendering:geometricPrecision; text-rendering:geometricPrecision; image-rendering:optimizeQuality; fill-rule:evenodd; clip-rule:evenodd"
viewBox="0 0 3777.11 3777.11"
 xmlns:xlink="http://www.w3.org/1999/xlink"
 xmlns:xodm="http://www.corel.com/coreldraw/odm/2003">
 <defs>
  <style type="text/css">
   <![CDATA[
    .fil0 {fill:#FEFEFE;fill-rule:nonzero}
   ]]>
  </style>
 </defs>
 <g id="Capa_x0020_1">
  <metadata id="CorelCorpID_0Corel-Layer"/>
  <path class="fil0" d="M3211.38 548.86c-353.26,-354.1 -823.71,-548.86 -1323.67,-548.86 -1031.96,0 -1871.69,839.73 -1871.69,1871.69 0,329.65 86,651.72 249.56,935.85l-265.58 969.57 992.33 -260.52c273.17,149.23 580.9,227.64 894.53,227.64l0.84 0c1031.12,0 1889.4,-839.73 1889.4,-1871.69 0,-499.96 -212.46,-969.57 -565.72,-1323.67l0 0zm-1323.67 2880.04c-279.91,0 -553.92,-75.04 -792.52,-216.68l-56.49 -33.72 -588.49 154.29 156.82 -574.15 -37.1 -59.02c-155.97,-247.87 -237.75,-533.68 -237.75,-827.93 0,-857.44 698.09,-1555.53 1556.37,-1555.53 415.65,0 806.01,161.88 1099.41,456.12 293.4,294.24 473.82,684.6 472.98,1100.25 0,858.28 -715.8,1556.37 -1573.23,1556.37l-0 -0zm853.22 -1165.17c-46.37,-23.61 -276.54,-136.58 -319.54,-151.76 -43,-16.02 -74.19,-23.61 -105.39,23.61 -31.19,47.21 -120.56,151.76 -148.39,183.8 -26.98,31.19 -54.8,35.41 -101.17,11.8 -274.85,-137.43 -455.28,-245.34 -636.54,-556.45 -48.06,-82.62 48.06,-76.72 137.43,-255.46 15.18,-31.19 7.59,-58.17 -4.22,-81.78 -11.8,-23.61 -105.39,-253.77 -144.17,-347.36 -37.94,-91.05 -76.72,-78.41 -105.39,-80.09 -26.98,-1.69 -58.17,-1.69 -89.37,-1.69 -31.19,0 -81.78,11.8 -124.78,58.17 -43,47.21 -163.56,160.19 -163.56,390.36 0,230.17 167.78,452.75 190.54,483.94 23.61,31.19 329.65,503.33 799.26,706.52 296.77,128.15 413.12,139.11 561.51,117.19 90.21,-13.49 276.54,-112.98 315.32,-222.58 38.78,-109.6 38.78,-203.19 26.98,-222.58 -10.96,-21.08 -42.16,-32.88 -88.53,-55.65l0 0z"/>
 </g>
</svg>
